{"title":"Brasserie.Romantique.2012.BRRip.x264.HORiZON-ArtSubs","uid":10416287,"size":1773921446,"categoryP":"video","categoryS":"movies","magnet":"?xt=urn:btih:9e823ab6e2bded057a131c653d4f9e38e48725aa&amp;dn=Brasserie.Romantique.2012.BRRip.x264.HORiZON-ArtSubs&amp;tr=udp%3A%2F%2Ftracker.openbittorrent.com%3A80&amp;tr=udp%3A%2F%2Fopen.demonii.com%3A1337&amp;tr=udp%3A%2F%2Ftracker.coppersurfer.tk%3A6969&amp;tr=udp%3A%2F%2Fexodus.desync.com%3A6969","seeders":6,"leechers":0,"uploader":"lletaif","files":2,"time":1403586478,"description":"\n\nTitle:\nBrasserie Romantique Aka Brasserie Romantieke\n\n\n\nCountry:\nBelgium, 2012\n\n\nLanguage:\nDutch\n\n\nSubtitle:\nEnglish\n\n\nIMDB: &lt;a href=&quot;\nhttp://www.imdb.com/title/tt2197849/?ref_=fn_al_tt_1&quot; rel=&quot;nofollow&quot; target=&quot;_NEW&quot;&gt;\nhttp://www.imdb.com/title/tt2197849/?ref_=fn_al_tt_1&lt;/a&gt;\n\n\nSynopsis:\nForty-something Pascaline runs a restaurant and prepares the stylish dining room for Valentine's Day. How could she expect her lover of twenty years ago to appear and asks her to leave with him to Buenos Aires. Her patrons of the evening also cope with the unexpected. Thirty-something, bored housewife Rose informs her husband that she has a lover. Almost fifty Mia intends to commit suicide when she is courted by waiter Lesley. And inconspicuous civil servant Walter is wrecked by insecurity when seated in front of the woman of his dreams. \n\n\n\nMedia Info:\nGeneral\nUnique ID                                : 55070901663875671452162956486339567609 (0x296E4515680C3A99731DF7770F0D9FF9)\nComplete name                            : Brasserie.Romantique.2012.BRRip.x264.HORiZON-ArtSubs.mkv\nFormat                                   : Matroska\nFormat version                           : Version 2\nFile size                                : 1.65 GiB\nDuration                                 : 1h 37mn\nOverall bit rate                         : 2 421 Kbps\nWriting application                      : HandBrake 0.9.5\nWriting library                          : libmkv 0.6.4.1\n\nVideo\nID                                       : 1\nFormat                                   : AVC\nFormat/Info                              : Advanced Video Codec\nFormat profile                           : &lt;a class=&quot;__cf_email__&quot; href=&quot;/cdn-cgi/l/email-protection&quot; data-cfemail=&quot;b9f1d0ded1f9f58a9789&quot;&gt;[email&amp;#160;protected]&lt;/a&gt;&lt;script cf-hash='f9e31' type=&quot;text/javascript&quot;&gt;\n/* &lt;![CDATA[ */!function(){try{var t=&quot;currentScript&quot;in document?document.currentScript:function(){for(var t=document.getElementsByTagName(&quot;script&quot;),e=t.length;e--;)if(t[e].getAttribute(&quot;cf-hash&quot;))return t[e]}();if(t&amp;&amp;t.previousSibling){var e,r,n,i,c=t.previousSibling,a=c.getAttribute(&quot;data-cfemail&quot;);if(a){for(e=&quot;&quot;,r=parseInt(a.substr(0,2),16),n=2;a.length-n;n+=2)i=parseInt(a.substr(n,2),16)^r,e+=String.fromCharCode(i);e=document.createTextNode(e),c.parentNode.replaceChild(e,c)}}}catch(u){}}();/* ]]&gt; */&lt;/script&gt;\nFormat settings, CABAC                   : Yes\nFormat settings, ReFrames                : 4 frames\nCodec ID                                 : V_MPEG4/ISO/AVC\nDuration                                 : 1h 37mn\nBit rate                                 : 1 981 Kbps\nWidth                                    : 720 pixels\nHeight                                   : 432 pixels\nDisplay aspect ratio                     : 2.40:1\nOriginal display aspect ratio            : 2.40:1\nFrame rate mode                          : Constant\nFrame rate                               : 24.000 fps\nColor space                              : YUV\nChroma subsampling                       : 4:2:0\nBit depth                                : 8 bits\nScan type                                : Progressive\nBits/(Pixel*Frame)                       : 0.255\nStream size                              : 1.31 GiB (80%)\nWriting library                          : x264 core 112\nEncoding settings                        : cabac=1 / ref=3 / deblock=1:0:0 / analyse=0x3:0x113 / me=hex / subme=7 / psy=1 / psy_rd=1.00:0.00 / mixed_ref=1 / me_range=16 / chroma_me=1 / trellis=1 / 8x8dct=1 / cqm=0 / deadzone=21,11 / fast_pskip=1 / chroma_qp_offset=-2 / threads=6 / sliced_threads=0 / nr=0 / decimate=1 / interlaced=0 / constrained_intra=0 / bframes=3 / b_pyramid=2 / b_adapt=2 / b_bias=0 / direct=1 / weightb=1 / open_gop=0 / weightp=2 / keyint=250 / keyint_min=25 / scenecut=40 / intra_refresh=0 / rc_lookahead=50 / rc=abr / mbtree=1 / bitrate=1981 / ratetol=1.0 / qcomp=0.60 / qpmin=3 / qpmax=51 / qpstep=4 / ip_ratio=1.40 / aq=1:1.00\nLanguage                                 : English\nDefault                                  : Yes\nForced                                   : No\nColor primaries                          : BT.601 NTSC\nTransfer characteristics                 : BT.709\nMatrix coefficients                      : BT.601\n\nAudio\nID                                       : 2\nFormat                                   : AC-3\nFormat/Info                              : Audio Coding 3\nMode extension                           : CM (complete main)\nFormat settings, Endianness              : Big\nCodec ID                                 : A_AC3\nDuration                                 : 1h 37mn\nBit rate mode                            : Constant\nBit rate                                 : 448 Kbps\nChannel(s)                               : 6 channels\nChannel positions                        : Front: L C R, Side: L R, LFE\nSampling rate                            : 48.0 KHz\nBit depth                                : 16 bits\nCompression mode                         : Lossy\nStream size                              : 313 MiB (19%)\nLanguage                                 : Dutch\nDefault                                  : Yes\nForced                                   : No\n\nText\nID                                       : 3\nLanguage                                 : English\nDefault                                  : No\nForced                                   : No\n\nMenu\n00:00:00.000                             : Chapter 1\n00:09:08.000                             : Chapter 2\n00:16:08.400                             : Chapter 3\n00:25:08.200                             : Chapter 4\n00:32:27.760                             : Chapter 5\n00:40:16.040                             : Chapter 6\n00:49:16.480                             : Chapter 7\n00:58:34.920                             : Chapter 8\n01:06:12.920                             : Chapter 9\n01:17:00.360                             : Chapter 10\n01:24:26.200                             : Chapter 11\n01:33:59.880                             : Chapter 12\n01:37:42.204                             : Chapter 13\n\n","torrent":{"xt":"urn:btih:9e823ab6e2bded057a131c653d4f9e38e48725aa","amp;dn":"Brasserie.Romantique.2012.BRRip.x264.HORiZON-ArtSubs","amp;tr":["udp%3A%2F%2Ftracker.openbittorrent.com%3A80","udp%3A%2F%2Fopen.demonii.com%3A1337","udp%3A%2F%2Ftracker.coppersurfer.tk%3A6969","udp%3A%2F%2Fexodus.desync.com%3A6969"],"infoHash":"9e823ab6e2bded057a131c653d4f9e38e48725aa","infoHashBuffer":{"type":"Buffer","data":[158,130,58,182,226,189,237,5,122,19,28,101,61,79,158,56,228,135,37,170]},"announce":[],"urlList":[]}}